<?xml version="1.0" standalone="no"?>
<svg viewBox="0 0 200 200" xmlns="http://www.w3.org/2000/svg">
  <path fill="#A7F0BA" d="M33.4,-59.8C39.8,-54.2,39.2,-38.2,42.4,-26.5C45.7,-14.8,53,-7.4,57.1,2.4C61.2,12.2,62.2,24.3,57.3,33.2C52.4,42.1,41.6,47.7,31,53C20.5,58.3,10.3,63.2,0.4,62.5C-9.4,61.7,-18.8,55.3,-29.6,50.2C-40.5,45.1,-52.8,41.4,-59.2,33.2C-65.5,25.1,-65.9,12.5,-62.5,2C-59.1,-8.6,-51.8,-17.2,-45.2,-24.8C-38.5,-32.4,-32.4,-39,-25,-44C-17.5,-49.1,-8.8,-52.5,2.4,-56.6C13.5,-60.7,27,-65.4,33.4,-59.8Z" transform="translate(100 100)" />
</svg>
